<svg width="180" height="60" viewBox="0 0 180 60" fill="none" xmlns="http://www.w3.org/2000/svg">
<path d="M42.2329 43.3737C42.2329 45.2399 44.3144 45.575 44.3144 46.6192C44.3144 46.6192 44.3144 47.2507 43.4818 47.2507H32.3161C31.4835 47.2507 31.4835 46.6192 31.4835 46.6192C31.4835 45.575 33.5649 45.2434 33.5649 43.3737V32.8116C33.5649 27.4036 32.2314 26.0348 30.3228 26.0348C28.072 26.0348 26.8972 28.1762 26.3892 29.4814C26.4527 30.0035 26.4951 30.5468 26.4951 31.1254V43.3702C26.4951 45.2364 28.5765 45.5715 28.5765 46.6157C28.5765 46.6157 28.5765 47.2472 27.7439 47.2472H16.5747C15.7421 47.2472 15.7421 46.6157 15.7421 46.6157C15.7421 45.5715 17.8235 45.2399 17.8235 43.3702V32.8081C17.8235 27.4001 16.49 26.0313 14.5814 26.0313C11.3464 26.0313 10.7502 30.4657 10.7502 30.4657V43.3702C10.7502 45.2364 12.8316 45.5715 12.8316 46.6157C12.8316 46.6157 12.8316 47.2472 11.999 47.2472H0.833296C0.000716879 47.2472 0.000716625 46.6157 0.000716625 46.6157C0.000716625 45.5715 2.08216 45.2364 2.08216 43.3702V28.3878C2.08216 26.5181 0.000716625 26.698 0.000716625 25.6503C0.000716625 25.6503 -0.0557292 24.8424 0.833296 24.599L8.49937 22.493H9.57537C10.228 22.493 10.7537 23.0256 10.7537 23.6853V25.4175C11.9038 23.897 13.8124 22.4965 16.9486 22.4965C21.2879 22.4965 24.1631 23.8088 25.5425 26.5075C26.6679 24.6449 28.8058 22.4965 32.6865 22.4965C39.0226 22.4965 42.2364 25.294 42.2364 31.1218V43.3667L42.2329 43.3737Z" fill="#D9E6B8"/>
<path d="M59.6743 46.6192C59.6743 46.6192 59.6743 47.2507 58.8417 47.2507H47.6764C46.8439 47.2507 46.8439 46.6192 46.8439 46.6192C46.8439 45.575 48.9252 45.2434 48.9252 43.3737V28.3878C48.9252 26.5216 46.8439 26.698 46.8439 25.6538C46.8439 25.6538 46.7874 24.846 47.6764 24.6025L55.3422 22.5H56.4182C57.0708 22.5 57.5964 23.0327 57.5964 23.6924V43.3737C57.5964 45.2399 59.6778 45.575 59.6778 46.6192H59.6743Z" fill="#D9E6B8"/>
<path d="M88.695 43.3737C88.695 45.2399 90.7765 45.575 90.7765 46.6192C90.7765 46.6192 90.7765 47.2507 89.9439 47.2507H78.7747C77.9421 47.2507 77.9421 46.6192 77.9421 46.6192C77.9421 45.575 80.0235 45.2434 80.0235 43.3737V32.8116C80.0235 27.4036 78.69 26.0348 76.7814 26.0348C73.5428 26.0348 72.9466 30.4692 72.9466 30.4692V43.3737C72.9466 45.2399 75.028 45.575 75.028 46.6192C75.028 46.6192 75.0281 47.2507 74.1955 47.2507H63.0262C62.1936 47.2507 62.1936 46.6192 62.1936 46.6192C62.1936 45.575 64.2751 45.2399 64.2751 43.3737V28.3913C64.2751 26.5216 62.1936 26.7016 62.1936 25.6538C62.1936 25.6538 62.1372 24.846 63.0262 24.6025L70.6923 22.4965H71.7683C72.421 22.4965 72.9466 23.0292 72.9466 23.6889V25.421C74.0967 23.9005 76.0053 22.5 79.1416 22.5C85.4776 22.5 88.6915 25.2975 88.6915 31.1254V43.3702L88.695 43.3737Z" fill="#D9E6B8"/>
<path d="M121.906 46.6192C121.906 46.6192 121.906 47.2507 121.074 47.2507H110.741C109.908 47.2507 109.908 46.6192 109.908 46.6192C109.908 45.575 111.57 45.1834 111.549 43.3808C111.288 39.3203 110.176 35.588 107.908 35.588C107.019 35.588 106.349 36.0536 106.176 36.1877L104.017 38.135V43.3737C104.017 45.2399 106.098 45.575 106.098 46.6192C106.098 46.6192 106.098 47.2507 105.265 47.2507H94.0962C93.2636 47.2507 93.2636 46.6192 93.2636 46.6192C93.2636 45.575 95.3451 45.2434 95.3451 43.3737V15.7655C95.3451 13.8958 93.2636 14.0757 93.2636 13.028C93.2636 13.028 93.2072 12.2201 94.0962 11.9767L101.762 9.87418H102.838C103.491 9.87418 104.017 10.4069 104.017 11.0666V34.2792L111.563 27.5482C113.919 25.4457 112.738 25.0153 112.738 23.9711C112.738 23.9711 112.738 23.3396 113.57 23.3396H119.829C120.661 23.3396 120.661 23.9711 120.661 23.9711C120.661 25.0153 118.805 24.8036 115.757 27.5482L110.885 31.9403C111.09 31.912 111.291 31.8909 111.492 31.8909C116.819 31.8909 118.721 37.2989 120.068 43.3737C120.46 45.1376 121.906 45.575 121.906 46.6192Z" fill="#D9E6B8"/>
<path d="M150.682 44.9859C150.682 44.9859 151.515 45.0282 151.515 45.8855C151.515 46.9544 149.233 48.0903 146.47 48.0903C143.133 48.0903 141.461 46.6651 140.681 45.1517C139.531 46.5804 137.386 48.0903 133.46 48.0903C127.272 48.0903 123.942 46.0901 123.942 41.4969C123.942 32.9668 136.663 32.3953 140.071 32.3953V28.8605C140.071 26.2112 139.02 25.0188 136.709 25.0188C134.8 25.0188 133.418 26.0771 133.418 28.4513C133.418 30.5186 131.812 31.7674 129.766 31.7674C127.861 31.7674 126.362 30.5186 126.362 28.4513C126.362 25.0506 130.454 22.5035 136.709 22.5035C144.188 22.5035 148.742 25.675 148.742 29.7037V43.4548C148.742 44.9259 149.61 45.3351 150.686 44.9894L150.682 44.9859ZM140.067 34.519C138.004 34.6143 132.814 35.4186 132.814 41.1159C132.814 43.5042 134.225 44.933 136.109 44.933C138.48 44.933 139.57 42.7952 140.067 40.9607V34.519Z" fill="#D9E6B8"/>
<path d="M179.167 23.4666C180 23.4666 180 24.0981 180 24.0981C180 25.1423 177.777 25.5268 176.952 27.6752L169.395 47.3777C165.5 57.5341 162.382 60 155.806 60C152.648 60 151.029 58.8111 151.029 56.6275C151.029 54.8812 152.123 53.83 153.964 53.83C156.06 53.83 157.108 55.9466 159.669 55.9466C161.796 55.9466 163.253 54.6167 163.253 52.7822C163.253 51.2653 162.315 48.8946 161.704 47.3707L153.791 27.6682C152.931 25.5198 150.793 25.1352 150.793 24.091C150.793 24.091 150.793 23.4595 151.625 23.4595H163.627C164.46 23.4595 164.46 24.091 164.46 24.091C164.46 25.1352 162.421 25.555 163.239 27.6682L168.485 41.2429L173.488 27.6682C174.264 25.5656 172.225 25.1352 172.225 24.091C172.225 24.091 172.225 23.4595 173.057 23.4595H179.174L179.167 23.4666Z" fill="#D9E6B8"/>
<path d="M62.2495 0C48.9992 0.493885 44.0286 6.65687 44.265 17.5047C56.8061 20.4645 62.4858 9.61665 62.2495 0Z" fill="#7C9900"/>
</svg>
